<svg width="63" height="38" viewBox="0 0 63 38" fill="none" xmlns="http://www.w3.org/2000/svg">
<path d="M62.5756 0.416992H0.420166V37.2032H62.5756V0.416992Z" fill="#EA1E29"/>
<path d="M62.5755 37.6201H0.420156C0.309566 37.6201 0.203504 37.5762 0.125305 37.498C0.0471055 37.4198 0.00317383 37.3138 0.00317383 37.2032V0.416982C0.00317383 0.306392 0.0471055 0.20033 0.125305 0.122131C0.203504 0.0439316 0.309566 0 0.420156 0H62.5755C62.6861 0 62.7922 0.0439316 62.8704 0.122131C62.9486 0.20033 62.9925 0.306392 62.9925 0.416982V37.2032C62.9925 37.3138 62.9486 37.4198 62.8704 37.498C62.7922 37.5762 62.6861 37.6201 62.5755 37.6201ZM0.837138 36.7862H62.1586V0.833965H0.837138V36.7862Z" fill="black"/>
<path d="M31.4979 14.8738L0.420166 37.2032H62.5756L31.4979 14.8738Z" fill="#EA1E29"/>
<path d="M62.5756 37.6202H0.420182C0.331177 37.6209 0.244292 37.5931 0.17223 37.5408C0.100168 37.4886 0.0467116 37.4147 0.0196855 37.3299C-0.00734048 37.245 -0.00651869 37.1538 0.022027 37.0695C0.0505727 36.9852 0.105343 36.9122 0.178332 36.8613L31.256 14.5361C31.327 14.4848 31.4124 14.4573 31.5 14.4573C31.5875 14.4573 31.6729 14.4848 31.7439 14.5361L62.8216 36.8613C62.8949 36.9124 62.9498 36.9858 62.9783 37.0705C63.0068 37.1552 63.0072 37.2469 62.9797 37.3319C62.9521 37.4169 62.898 37.4908 62.8252 37.5427C62.7524 37.5946 62.6649 37.6218 62.5756 37.6202ZM1.717 36.7862H61.2829L31.5062 15.3867L1.717 36.7862Z" fill="black"/>
<path d="M31.4979 22.7422L0.420166 0.416992H62.5756L31.4979 22.7422Z" fill="#EA1E29"/>
<path d="M31.5059 23.1592C31.4195 23.1599 31.335 23.1336 31.2641 23.0841L0.186379 0.75474C0.115186 0.7032 0.0621007 0.630484 0.0347001 0.546974C0.00729947 0.463463 0.00698237 0.373431 0.0338029 0.289732C0.0606235 0.206033 0.11321 0.132948 0.184044 0.0809164C0.254878 0.0288844 0.340341 0.000565312 0.42823 2.67202e-06H62.5753C62.6635 -0.000313156 62.7496 0.0273763 62.8211 0.079084C62.8926 0.130792 62.9459 0.203853 62.9732 0.287753C63.0006 0.371654 63.0006 0.462065 62.9733 0.545981C62.946 0.629898 62.8928 0.702991 62.8213 0.75474L31.7436 23.0841C31.6739 23.1328 31.5909 23.159 31.5059 23.1592ZM1.72504 0.833967L31.5059 22.2293L61.291 0.833967H1.72504Z" fill="black"/>
<path d="M33.3743 13.6144C33.3493 13.7228 33.3285 13.8438 33.3076 13.9855C33.2846 14.1065 33.272 14.2293 33.2701 14.3525C33.2685 14.4294 33.2903 14.5051 33.3326 14.5693C33.3617 14.6043 33.399 14.6314 33.4413 14.6482C33.4836 14.6649 33.5294 14.6708 33.5745 14.6652C33.6974 14.6629 33.8178 14.63 33.9248 14.5693C34.0506 14.4974 34.1555 14.3939 34.2291 14.2691C34.3301 14.1082 34.4048 13.9323 34.4501 13.7479C34.5097 13.5036 34.5377 13.2528 34.5335 13.0015C34.5401 12.599 34.4663 12.1992 34.3167 11.8256C34.1786 11.5067 33.9722 11.2221 33.7121 10.9916C33.4462 10.7533 33.1318 10.5754 32.7906 10.4704C32.4125 10.3538 32.0187 10.2961 31.623 10.2994C31.1948 10.2951 30.7699 10.3744 30.3721 10.5329C30.0029 10.6814 29.669 10.9059 29.3921 11.1918C29.1175 11.4815 28.9034 11.8231 28.7625 12.1967C28.6136 12.5968 28.5387 13.0207 28.5415 13.4476C28.5329 13.8977 28.6166 14.3447 28.7875 14.7611C28.9415 15.1279 29.1718 15.4577 29.463 15.7285C29.7672 16 30.1212 16.2096 30.5055 16.3457C30.9246 16.4935 31.3663 16.5669 31.8106 16.5625C32.2071 16.5676 32.6016 16.507 32.9782 16.3832C33.3189 16.2722 33.6378 16.1029 33.9206 15.8828H35.1465C34.7584 16.4186 34.2424 16.8487 33.6454 17.1338C33.0438 17.4147 32.387 17.5572 31.7231 17.5507C31.1528 17.5525 30.5871 17.4478 30.0552 17.2422C29.5485 17.0524 29.0818 16.7695 28.6791 16.4082C28.2836 16.0418 27.9684 15.5974 27.7534 15.103C27.521 14.5781 27.4044 14.0092 27.4115 13.4351C27.404 12.8619 27.5176 12.2935 27.7451 11.7672C27.9619 11.2723 28.2735 10.8246 28.6624 10.4495C29.0543 10.074 29.5143 9.77679 30.0176 9.57387C31.0081 9.17873 32.1074 9.15209 33.1158 9.49881C33.5727 9.6545 33.9968 9.89343 34.3668 10.2035C34.7435 10.5222 35.0502 10.9155 35.2674 11.3585C35.4996 11.8481 35.6152 12.3847 35.6052 12.9264C35.612 13.2734 35.5656 13.6193 35.4676 13.9522C35.3891 14.2148 35.2679 14.4627 35.109 14.6861C34.9769 14.8778 34.8117 15.0444 34.6211 15.1781C34.4514 15.2969 34.268 15.3949 34.0749 15.47C33.9047 15.5332 33.7287 15.5793 33.5495 15.6076C33.4116 15.6311 33.2723 15.645 33.1325 15.6493C32.8927 15.6708 32.6534 15.6024 32.4611 15.4575C32.3999 15.4055 32.3496 15.3418 32.3131 15.2702C32.2766 15.1987 32.2547 15.1206 32.2485 15.0405H32.2276C32.0618 15.2049 31.8737 15.3453 31.6689 15.4575C31.4009 15.5945 31.1023 15.6606 30.8016 15.6493C30.5756 15.6503 30.3522 15.6019 30.1469 15.5075C29.9529 15.4177 29.7808 15.2868 29.6423 15.1239C29.4939 14.9506 29.3819 14.7492 29.3129 14.5318C29.2321 14.2871 29.1926 14.0306 29.1962 13.7729C29.1945 13.4523 29.2467 13.1338 29.3505 12.8305C29.449 12.5394 29.5986 12.2683 29.7925 12.0299C29.9802 11.7942 30.218 11.6033 30.4888 11.4711C30.7801 11.3316 31.0999 11.2616 31.4229 11.2668C31.6779 11.2567 31.9318 11.3052 32.1651 11.4086C32.3724 11.5131 32.5362 11.6873 32.6279 11.9006H32.653L32.7405 11.4002H33.7871L33.3743 13.6144ZM32.3361 13.3142C32.3471 13.0547 32.2772 12.7982 32.1359 12.5803C32.0657 12.4818 31.9712 12.4031 31.8616 12.352C31.752 12.3008 31.631 12.2789 31.5104 12.2884C31.351 12.2852 31.1932 12.3216 31.0513 12.3944C30.9094 12.4671 30.7877 12.574 30.6973 12.7054C30.4905 12.9911 30.3835 13.3369 30.3929 13.6895C30.393 13.8086 30.4056 13.9274 30.4304 14.0439C30.4484 14.1574 30.4881 14.2664 30.5472 14.365C30.6053 14.4592 30.6854 14.5379 30.7807 14.5943C30.8987 14.6567 31.031 14.6869 31.1643 14.6819C31.3636 14.6888 31.5614 14.6458 31.7398 14.5568C31.884 14.4813 32.0084 14.3727 32.1025 14.2399C32.1894 14.1137 32.2516 13.9722 32.286 13.8229C32.3229 13.6559 32.3411 13.4853 32.3402 13.3142H32.3361Z" fill="white"/>
</svg>
