<svg width="131" height="169" viewBox="0 0 131 169" fill="none" xmlns="http://www.w3.org/2000/svg">
<path d="M96.2377 1.44543H30.445C25.4062 1.44543 21.3215 6.39506 21.3215 12.5007V156.51C21.3215 162.616 25.4062 167.566 30.445 167.566H96.2377C101.276 167.566 105.361 162.616 105.361 156.51V12.5007C105.361 6.39506 101.276 1.44543 96.2377 1.44543Z" fill="#EA1E26"/>
<path d="M96.2285 168.672H30.445C27.7814 168.669 25.2276 167.386 23.3441 165.104C21.4606 162.821 20.4014 159.727 20.399 156.499V12.5008C20.4014 9.27316 21.4606 6.1786 23.3441 3.89634C25.2276 1.61407 27.7814 0.330596 30.445 0.327637H96.2285C98.8937 0.327635 101.45 1.6098 103.335 3.89239C105.221 6.17497 106.281 9.27123 106.284 12.5008V156.499C106.281 159.729 105.221 162.825 103.335 165.108C101.45 167.39 98.8937 168.672 96.2285 168.672ZM30.445 2.56329C28.2707 2.56625 26.1862 3.61419 24.6487 5.47719C23.1113 7.34018 22.2464 9.86609 22.244 12.5008V156.499C22.2464 159.134 23.1113 161.66 24.6487 163.523C26.1862 165.386 28.2707 166.434 30.445 166.437H96.2285C98.4044 166.437 100.491 165.39 102.031 163.527C103.57 161.663 104.436 159.136 104.439 156.499V12.5008C104.436 9.86416 103.57 7.33656 102.031 5.47324C100.491 3.60992 98.4044 2.56329 96.2285 2.56329H30.445Z" fill="#093F68"/>
<path d="M105.361 15.2842H21.3215V142.437H105.361V15.2842Z" fill="white"/>
<path d="M105.361 143.555H21.3215C21.0768 143.555 20.8422 143.437 20.6692 143.227C20.4962 143.018 20.399 142.733 20.399 142.437V15.2841C20.399 14.9877 20.4962 14.7034 20.6692 14.4937C20.8422 14.2841 21.0768 14.1663 21.3215 14.1663H105.361C105.606 14.1663 105.841 14.2841 106.014 14.4937C106.187 14.7034 106.284 14.9877 106.284 15.2841V142.437C106.284 142.733 106.187 143.018 106.014 143.227C105.841 143.437 105.606 143.555 105.361 143.555ZM22.244 141.319H104.439V16.402H22.244V141.319Z" fill="#093F68"/>
<path d="M95.7303 102.788H63.8948C62.132 102.788 60.703 104.519 60.703 106.655V112.826C60.703 114.962 62.132 116.693 63.8948 116.693H95.7303C97.4931 116.693 98.9222 114.962 98.9222 112.826V106.655C98.9222 104.519 97.4931 102.788 95.7303 102.788Z" fill="#DFEAEF"/>
<path d="M95.7396 117.811H63.8949C62.8037 117.811 61.7572 117.286 60.9856 116.351C60.214 115.416 59.7805 114.148 59.7805 112.826V106.644C59.783 105.324 60.2175 104.059 60.9888 103.126C61.7602 102.194 62.8053 101.67 63.8949 101.67H95.7396C96.8276 101.673 97.8703 102.198 98.6396 103.13C99.409 104.062 99.8422 105.326 99.8447 106.644V112.826C99.8447 114.146 99.4125 115.412 98.6429 116.347C97.8733 117.282 96.8292 117.808 95.7396 117.811ZM63.8949 103.905C63.2946 103.905 62.7188 104.194 62.2934 104.707C61.8681 105.22 61.628 105.917 61.6255 106.644V112.826C61.6255 113.555 61.8646 114.254 62.2902 114.77C62.7158 115.286 63.293 115.576 63.8949 115.576H95.7396C96.3398 115.573 96.9147 115.282 97.3383 114.766C97.7619 114.251 97.9997 113.553 97.9997 112.826V106.644C97.9997 105.918 97.7616 105.221 97.3377 104.708C96.9138 104.194 96.339 103.905 95.7396 103.905H63.8949Z" fill="#DFEAEF"/>
<path d="M95.3152 23.8802H64.31C62.3179 23.8802 60.703 25.8371 60.703 28.251V37.3501C60.703 39.7639 62.3179 41.7208 64.31 41.7208H95.3152C97.3073 41.7208 98.9222 39.7639 98.9222 37.3501V28.251C98.9222 25.8371 97.3073 23.8802 95.3152 23.8802Z" fill="#DFEAEF"/>
<path d="M95.3152 42.8274H64.3192C63.1171 42.8274 61.964 42.2495 61.1131 41.2206C60.2622 40.1916 59.783 38.7956 59.7805 37.3389V28.251C59.783 26.7943 60.2622 25.3983 61.1131 24.3693C61.964 23.3403 63.1171 22.7624 64.3192 22.7625H95.3152C96.5165 22.7625 97.6686 23.3407 98.518 24.37C99.3675 25.3993 99.8447 26.7953 99.8447 28.251V37.3389C99.8447 38.7946 99.3675 40.1906 98.518 41.2199C97.6686 42.2492 96.5165 42.8274 95.3152 42.8274ZM64.3192 24.9422C63.9659 24.9407 63.6158 25.0238 63.2891 25.1866C62.9623 25.3494 62.6653 25.5888 62.415 25.891C62.1648 26.1932 61.9662 26.5523 61.8307 26.9477C61.6953 27.3431 61.6255 27.767 61.6255 28.1951V37.283C61.628 38.1468 61.9128 38.9741 62.4177 39.5838C62.9226 40.1935 63.6064 40.5359 64.3192 40.5359H95.3152C96.0264 40.5329 96.7078 40.1893 97.2107 39.5799C97.7136 38.9705 97.9972 38.1448 97.9997 37.283V28.251C97.9997 27.3883 97.7169 26.5609 97.2134 25.9509C96.71 25.3408 96.0272 24.9981 95.3152 24.9981L64.3192 24.9422Z" fill="#DFEAEF"/>
<path d="M60.5001 82.6444H28.4801C26.7682 82.6444 25.3805 84.326 25.3805 86.4003V92.0006C25.3805 94.075 26.7682 95.7565 28.4801 95.7565H60.5001C62.2119 95.7565 63.5997 94.075 63.5997 92.0006V86.4003C63.5997 84.326 62.2119 82.6444 60.5001 82.6444Z" fill="#DFEAEF"/>
<path d="M60.5 96.8744H28.48C27.9519 96.8744 27.4289 96.7483 26.9409 96.5034C26.4529 96.2584 26.0095 95.8995 25.636 95.4469C25.2625 94.9943 24.9662 94.457 24.7641 93.8657C24.562 93.2744 24.4579 92.6407 24.4579 92.0006V86.4115C24.4604 85.1209 24.8852 83.8841 25.6393 82.9725C26.3933 82.0609 27.4149 81.5489 28.48 81.549H60.5C61.5652 81.5489 62.5868 82.0609 63.3408 82.9725C64.0949 83.8841 64.5197 85.1209 64.5221 86.4115V92.0006C64.5221 93.2932 64.0984 94.5329 63.3441 95.4469C62.5898 96.3609 61.5668 96.8744 60.5 96.8744ZM28.48 83.7622C27.9042 83.7622 27.3519 84.0387 26.9439 84.531C26.5358 85.0233 26.3054 85.6914 26.3029 86.3891V91.9783C26.3029 92.6779 26.5323 93.3489 26.9406 93.8437C27.3489 94.3384 27.9026 94.6164 28.48 94.6164H60.5C61.0774 94.6164 61.6312 94.3384 62.0395 93.8437C62.4478 93.3489 62.6771 92.6779 62.6771 91.9783V86.3891C62.6747 85.6914 62.4442 85.0233 62.0362 84.531C61.6282 84.0387 61.0758 83.7622 60.5 83.7622H28.48Z" fill="#DFEAEF"/>
<path d="M58.9041 44.5601H30.076C27.4828 44.5601 25.3805 47.1074 25.3805 50.2498V68.9846C25.3805 72.1269 27.4828 74.6743 30.076 74.6743H58.9041C61.4974 74.6743 63.5997 72.1269 63.5997 68.9846V50.2498C63.5997 47.1074 61.4974 44.5601 58.9041 44.5601Z" fill="#DFEAEF"/>
<path d="M58.9041 75.7921H30.076C28.586 75.7921 27.157 75.0749 26.1034 73.7982C25.0498 72.5215 24.4579 70.79 24.4579 68.9845V50.2386C24.4604 48.435 25.0534 46.7064 26.1067 45.4321C27.16 44.1579 28.5876 43.4422 30.076 43.4422H58.9041C60.3925 43.4422 61.8201 44.1579 62.8734 45.4321C63.9267 46.7064 64.5197 48.435 64.5221 50.2386V68.9845C64.5221 70.79 63.9302 72.5215 62.8767 73.7982C61.8231 75.0749 60.3941 75.7921 58.9041 75.7921ZM30.076 45.6779C29.0769 45.6778 28.1186 46.158 27.4113 47.013C26.704 47.868 26.3054 49.028 26.3029 50.2386V68.9845C26.3054 70.1962 26.7037 71.3573 27.4107 72.2141C28.1178 73.0709 29.0761 73.5535 30.076 73.5565H58.9041C59.9048 73.5565 60.8645 73.0748 61.572 72.2174C62.2796 71.36 62.6771 70.1971 62.6771 68.9845V50.2386C62.6747 49.028 62.2761 47.868 61.5688 47.013C60.8615 46.158 59.9032 45.6778 58.9041 45.6779H30.076Z" fill="#DFEAEF"/>
<path d="M72.1697 9.695H58.6643C58.4196 9.695 58.185 9.57723 58.012 9.3676C57.839 9.15796 57.7418 8.87364 57.7418 8.57718C57.7418 8.28071 57.839 7.99639 58.012 7.78675C58.185 7.57712 58.4196 7.45935 58.6643 7.45935H72.1697C72.4143 7.45935 72.649 7.57712 72.822 7.78675C72.995 7.99639 73.0922 8.28071 73.0922 8.57718C73.0922 8.87364 72.995 9.15796 72.822 9.3676C72.649 9.57723 72.4143 9.695 72.1697 9.695Z" fill="#093F68"/>
<path d="M54.5038 9.69504C54.2592 9.69504 54.0245 9.57727 53.8515 9.36763C53.6785 9.158 53.5813 8.87368 53.5813 8.57721C53.5768 8.50279 53.5768 8.42806 53.5813 8.35364L53.6367 8.14126L53.7197 7.95122L53.8396 7.78355C54.0125 7.57536 54.2463 7.4585 54.49 7.4585C54.7337 7.4585 54.9675 7.57536 55.1404 7.78355L55.2603 7.95122L55.3433 8.14126L55.3987 8.35364C55.4032 8.42806 55.4032 8.50279 55.3987 8.57721C55.3952 8.87206 55.2957 9.1533 55.1219 9.35969C55.0401 9.46756 54.9391 9.55163 54.8267 9.60561C54.7244 9.65878 54.615 9.68908 54.5038 9.69504Z" fill="#093F68"/>
<path d="M63.3413 159.741C65.7206 159.741 67.6494 157.404 67.6494 154.521C67.6494 151.638 65.7206 149.3 63.3413 149.3C60.9621 149.3 59.0333 151.638 59.0333 154.521C59.0333 157.404 60.9621 159.741 63.3413 159.741Z" fill="#093F68"/>
<path d="M58.5351 23.8802H5.95264C4.67955 23.8802 3.45846 24.4923 2.55738 25.5821C1.65631 26.6718 1.14887 28.1503 1.14642 29.6929V64.8486C1.14887 66.3912 1.65631 67.8697 2.55738 68.9595C3.45846 70.0492 4.67955 70.6613 5.95264 70.6613H37.4837L44.181 84.8018V70.6613H58.5444C59.1751 70.6628 59.7999 70.5135 60.3829 70.222C60.966 69.9306 61.4959 69.5026 61.9423 68.9627C62.3887 68.4228 62.7429 67.7816 62.9846 67.0756C63.2262 66.3696 63.3506 65.6129 63.3506 64.8486V29.7265C63.3543 28.9584 63.2323 28.1971 62.9917 27.4866C62.7511 26.776 62.3967 26.1302 61.9489 25.5866C61.5011 25.043 60.9689 24.6123 60.383 24.3194C59.797 24.0265 59.169 23.8773 58.5351 23.8802Z" fill="#FFBC0E"/>
<path d="M44.1718 85.9196C44.0083 85.9193 43.8479 85.8663 43.7069 85.7662C43.5658 85.666 43.4493 85.5222 43.3692 85.3495L36.9117 71.7791H5.91574C4.39799 71.7791 2.94226 71.0493 1.86818 69.7499C0.794099 68.4505 0.189456 66.6877 0.187012 64.8486V29.7265C0.189456 27.8874 0.794099 26.1246 1.86818 24.8252C2.94226 23.5258 4.39799 22.796 5.91574 22.796H58.4982C60.016 22.796 61.4717 23.5258 62.5458 24.8252C63.6199 26.1246 64.2245 27.8874 64.2269 29.7265V64.8821C64.2245 66.7212 63.6199 68.484 62.5458 69.7834C61.4717 71.0828 60.016 71.8127 58.4982 71.8127H45.0943V84.8353C45.1014 85.0877 45.0378 85.3356 44.9139 85.5385C44.7899 85.7415 44.6129 85.8877 44.4116 85.9532C44.3307 85.9576 44.2498 85.9463 44.1718 85.9196ZM5.94341 24.9981C4.91498 24.9981 3.92854 25.4924 3.20046 26.3725C2.47239 27.2526 2.06213 28.4468 2.05968 29.6929V64.8486C2.06213 66.0948 2.47239 67.2889 3.20046 68.1691C3.92854 69.0492 4.91498 69.5435 5.94341 69.5435H37.4744C37.6379 69.5438 37.7984 69.5968 37.9394 69.6969C38.0804 69.7971 38.1969 69.9409 38.277 70.1136L43.2493 80.61V70.6613C43.2493 70.3648 43.3465 70.0805 43.5195 69.8709C43.6925 69.6612 43.9271 69.5435 44.1718 69.5435H58.5351C59.5635 69.5435 60.55 69.0492 61.2781 68.1691C62.0061 67.2889 62.4164 66.0948 62.4188 64.8486V29.7265C62.4164 28.4803 62.0061 27.2862 61.2781 26.406C60.55 25.5259 59.5635 25.0316 58.5351 25.0316L5.94341 24.9981Z" fill="#093F68"/>
<path d="M78.0645 55.157H125.527C126.677 55.157 127.78 55.7106 128.593 56.6958C129.406 57.6811 129.863 59.0174 129.863 60.4108V92.1236C129.863 93.517 129.406 94.8533 128.593 95.8386C127.78 96.8238 126.677 97.3774 125.527 97.3774H97.068L91.0256 110.132V97.3774H78.1106C77.5409 97.3788 76.9765 97.2439 76.4499 96.9804C75.9234 96.7169 75.4449 96.33 75.0421 95.8419C74.6392 95.3537 74.3199 94.7739 74.1024 94.1359C73.885 93.4978 73.7736 92.8139 73.7749 92.1236V60.4108C73.7724 59.0262 74.2221 57.6966 75.0257 56.7123C75.8294 55.7279 76.9218 55.1688 78.0645 55.157Z" fill="#F56132"/>
<path d="M91.0256 111.25H90.7858C90.5845 111.184 90.4075 111.038 90.2835 110.835C90.1596 110.632 90.096 110.384 90.1031 110.132V98.4952H78.1106C76.7168 98.4922 75.3807 97.82 74.3952 96.6257C73.4096 95.4314 72.8548 93.8125 72.8524 92.1236V60.4108C72.8524 58.7209 73.4064 57.1003 74.3925 55.9054C75.3786 54.7105 76.716 54.0392 78.1106 54.0392H125.573C126.968 54.0392 128.305 54.7105 129.291 55.9054C130.278 57.1003 130.831 58.7209 130.831 60.4108V92.1236C130.829 93.8125 130.274 95.4314 129.289 96.6257C128.303 97.82 126.967 98.4922 125.573 98.4952H97.603L91.8282 110.691C91.7469 110.861 91.6299 111.003 91.4889 111.101C91.348 111.199 91.1882 111.25 91.0256 111.25ZM78.1106 56.2748C77.2054 56.2748 76.3372 56.7106 75.6971 57.4862C75.057 58.2619 74.6974 59.3139 74.6974 60.4108V92.1236C74.6974 93.2205 75.057 94.2725 75.6971 95.0481C76.3372 95.8238 77.2054 96.2595 78.1106 96.2595H91.0256C91.2703 96.2595 91.5049 96.3773 91.6779 96.5869C91.8509 96.7966 91.9481 97.0809 91.9481 97.3773V105.94L96.2654 96.8184C96.3467 96.6478 96.4637 96.5063 96.6047 96.4082C96.7456 96.31 96.9054 96.2587 97.068 96.2595H125.527C126.432 96.2595 127.301 95.8238 127.941 95.0481C128.581 94.2725 128.94 93.2205 128.94 92.1236V60.4108C128.94 59.3139 128.581 58.2619 127.941 57.4862C127.301 56.7106 126.432 56.2748 125.527 56.2748H78.1106Z" fill="#093F68"/>
<path d="M95.2875 135.35H31.3675C30.7512 135.384 30.1357 135.265 29.558 135.003C28.9804 134.74 28.4527 134.338 28.0068 133.822C27.5608 133.305 27.2059 132.684 26.9634 131.997C26.721 131.31 26.5959 130.57 26.5959 129.822C26.5959 129.075 26.721 128.335 26.9634 127.647C27.2059 126.96 27.5608 126.339 28.0068 125.823C28.4527 125.306 28.9804 124.904 29.558 124.642C30.1357 124.379 30.7512 124.261 31.3675 124.295H95.2599C96.4342 124.359 97.543 124.969 98.3553 125.999C99.1677 127.028 99.621 128.398 99.621 129.822C99.621 131.247 99.1677 132.616 98.3553 133.646C97.543 134.676 96.4342 135.286 95.2599 135.35H95.2875ZM31.3675 126.53C30.9974 126.504 30.6268 126.57 30.2785 126.724C29.9301 126.877 29.6113 127.115 29.3417 127.424C29.072 127.732 28.8572 128.104 28.7103 128.516C28.5635 128.929 28.4878 129.373 28.4878 129.822C28.4878 130.271 28.5635 130.716 28.7103 131.128C28.8572 131.541 29.072 131.913 29.3417 132.221C29.6113 132.529 29.9301 132.767 30.2785 132.921C30.6268 133.075 30.9974 133.14 31.3675 133.114H95.2599C95.953 133.065 96.6045 132.697 97.081 132.085C97.5575 131.473 97.8229 130.664 97.8229 129.822C97.8229 128.981 97.5575 128.171 97.081 127.559C96.6045 126.947 95.953 126.579 95.2599 126.53H31.3675Z" fill="#DFEAEF"/>
<path d="M51.4595 37.5513H13.019C12.7743 37.5513 12.5397 37.4335 12.3667 37.2239C12.1937 37.0142 12.0965 36.7299 12.0965 36.4334C12.0965 36.137 12.1937 35.8526 12.3667 35.643C12.5397 35.4334 12.7743 35.3156 13.019 35.3156H51.4595C51.7042 35.3156 51.9389 35.4334 52.1119 35.643C52.2849 35.8526 52.382 36.137 52.382 36.4334C52.382 36.7299 52.2849 37.0142 52.1119 37.2239C51.9389 37.4335 51.7042 37.5513 51.4595 37.5513Z" fill="#093F68"/>
<path d="M51.4595 46.5833H13.019C12.7743 46.5833 12.5397 46.4655 12.3667 46.2559C12.1937 46.0463 12.0965 45.762 12.0965 45.4655C12.0965 45.169 12.1937 44.8847 12.3667 44.6751C12.5397 44.4654 12.7743 44.3477 13.019 44.3477H51.4595C51.7042 44.3477 51.9389 44.4654 52.1119 44.6751C52.2849 44.8847 52.382 45.169 52.382 45.4655C52.382 45.762 52.2849 46.0463 52.1119 46.2559C51.9389 46.4655 51.7042 46.5833 51.4595 46.5833Z" fill="#093F68"/>
<path d="M39.8453 55.6265H13.019C12.7743 55.6265 12.5397 55.5088 12.3667 55.2991C12.1937 55.0895 12.0965 54.8052 12.0965 54.5087C12.0965 54.2122 12.1937 53.9279 12.3667 53.7183C12.5397 53.5086 12.7743 53.3909 13.019 53.3909H39.8453C40.09 53.3909 40.3246 53.5086 40.4976 53.7183C40.6706 53.9279 40.7678 54.2122 40.7678 54.5087C40.7678 54.8052 40.6706 55.0895 40.4976 55.2991C40.3246 55.5088 40.09 55.6265 39.8453 55.6265Z" fill="#093F68"/>
<path d="M121.016 66.8495H82.5755C82.3308 66.8495 82.0961 66.7318 81.9231 66.5221C81.7501 66.3125 81.653 66.0282 81.653 65.7317C81.653 65.4353 81.7501 65.1509 81.9231 64.9413C82.0961 64.7317 82.3308 64.6139 82.5755 64.6139H121.016C121.261 64.6139 121.495 64.7317 121.668 64.9413C121.841 65.1509 121.939 65.4353 121.939 65.7317C121.939 66.0282 121.841 66.3125 121.668 66.5221C121.495 66.7318 121.261 66.8495 121.016 66.8495Z" fill="#093F68"/>
<path d="M121.016 75.8815H82.5755C82.3308 75.8815 82.0961 75.7638 81.9231 75.5541C81.7501 75.3445 81.653 75.0602 81.653 74.7637C81.653 74.4672 81.7501 74.1829 81.9231 73.9733C82.0961 73.7636 82.3308 73.6459 82.5755 73.6459H121.016C121.261 73.6459 121.495 73.7636 121.668 73.9733C121.841 74.1829 121.939 74.4672 121.939 74.7637C121.939 75.0602 121.841 75.3445 121.668 75.5541C121.495 75.7638 121.261 75.8815 121.016 75.8815Z" fill="#093F68"/>
<path d="M109.402 84.9247H82.5755C82.3308 84.9247 82.0961 84.807 81.9231 84.5973C81.7501 84.3877 81.653 84.1034 81.653 83.8069C81.653 83.5104 81.7501 83.2261 81.9231 83.0165C82.0961 82.8069 82.3308 82.6891 82.5755 82.6891H109.402C109.646 82.6891 109.881 82.8069 110.054 83.0165C110.227 83.2261 110.324 83.5104 110.324 83.8069C110.324 84.1034 110.227 84.3877 110.054 84.5973C109.881 84.807 109.646 84.9247 109.402 84.9247Z" fill="#093F68"/>
</svg>
